# xmcd
#
# Track frame offsets:
#	150
#	8565
#	24783
#	44281
#	50641
#	67757
#	86312
#	111739
#	123149
#	143048
#	162732
#	171941
#	189327
#	209285
#	215721
#	240518
#	262562
#	281133
#
# Disc length: 3981 seconds
#
# Revision: 0
# Processed by: cddbd v1.5.1PL0 Copyright (c) Steve Scherf et al.
# Submitted via: audiograbber 1.80
#
DISCID=f40f8b12
DTITLE=Wordz - You Haven't Heard Me Yet
DYEAR=1900
DGENRE=
TTITLE0=Just the Beginning
TTITLE1=My Turn To Shine
TTITLE2=Simple
TTITLE3=Interview Pt.1
TTITLE4=Niagara of Wordz
TTITLE5=Above Average
TTITLE6=Restless
TTITLE7=Interview Pt.2
TTITLE8=You Couldn't Even Tell
TTITLE9=Bboy Energy
TTITLE10=Interview Pt.3
TTITLE11=Don't Sleep
TTITLE12=No Recovery
TTITLE13=Interview Pt.4
TTITLE14=Brick By Brick
TTITLE15=Welcome To America
TTITLE16=Weekend
TTITLE17=The Last Word
EXTD=
EXTT0=
EXTT1=
EXTT2=
EXTT3=
EXTT4=
EXTT5=
EXTT6=
EXTT7=
EXTT8=
EXTT9=
EXTT10=
EXTT11=
EXTT12=
EXTT13=
EXTT14=
EXTT15=
EXTT16=
EXTT17=
PLAYORDER=
